<?xml version="1.0" encoding="UTF-8" standalone="no"?>
<!-- Created with Inkscape (http://www.inkscape.org/) -->

<svg
   width="512"
   height="512"
   viewBox="0 0 512 512"
   version="1.1"
   id="svg1"
   inkscape:version="1.4 (e7c3feb1, 2024-10-09)"
   sodipodi:docname="murder-logo-new.svg"
   xmlns:inkscape="http://www.inkscape.org/namespaces/inkscape"
   xmlns:sodipodi="http://sodipodi.sourceforge.net/DTD/sodipodi-0.dtd"
   xmlns:xlink="http://www.w3.org/1999/xlink"
   xmlns="http://www.w3.org/2000/svg"
   xmlns:svg="http://www.w3.org/2000/svg">
  <sodipodi:namedview
     id="namedview1"
     pagecolor="#505050"
     bordercolor="#ffffff"
     borderopacity="1"
     inkscape:showpageshadow="0"
     inkscape:pageopacity="0"
     inkscape:pagecheckerboard="1"
     inkscape:deskcolor="#505050"
     inkscape:document-units="px"
     inkscape:zoom="0.96626131"
     inkscape:cx="209.57064"
     inkscape:cy="223.02456"
     inkscape:window-width="1200"
     inkscape:window-height="1512"
     inkscape:window-x="1295"
     inkscape:window-y="61"
     inkscape:window-maximized="0"
     inkscape:current-layer="layer1" />
  <defs
     id="defs1">
    <linearGradient
       id="linearGradient24"
       inkscape:collect="always">
      <stop
         style="stop-color:#00003a;stop-opacity:1;"
         offset="0"
         id="stop23" />
      <stop
         style="stop-color:#3b0032;stop-opacity:1;"
         offset="1"
         id="stop24" />
    </linearGradient>
    <radialGradient
       inkscape:collect="always"
       xlink:href="#linearGradient24"
       id="radialGradient16"
       cx="196.4632"
       cy="225.85683"
       fx="196.4632"
       fy="225.85683"
       r="137.21014"
       gradientTransform="matrix(0.14159944,1.937395,-1.183435,0.08649436,409.64838,-143.33832)"
       gradientUnits="userSpaceOnUse" />
    <radialGradient
       inkscape:collect="always"
       xlink:href="#linearGradient24"
       id="radialGradient16-6"
       cx="196.4632"
       cy="225.85683"
       fx="196.4632"
       fy="225.85683"
       r="137.21014"
       gradientTransform="matrix(-1.8865009,-0.46331827,0.28301254,-1.152347,628.26616,534.30493)"
       gradientUnits="userSpaceOnUse" />
    <radialGradient
       inkscape:collect="always"
       xlink:href="#linearGradient24"
       id="radialGradient16-6-0"
       cx="196.4632"
       cy="225.85683"
       fx="196.4632"
       fy="225.85683"
       r="137.21014"
       gradientTransform="matrix(1.5832655,-1.1255309,0.68751737,0.9671192,-157.71153,345.92732)"
       gradientUnits="userSpaceOnUse" />
  </defs>
  <g
     inkscape:groupmode="layer"
     id="layer2"
     inkscape:label="Layer 2" />
  <g
     inkscape:label="Layer 1"
     inkscape:groupmode="layer"
     id="layer1">
    <path
       style="fill:url(#radialGradient16);stroke:#ffffff;stroke-width:2;stroke-dasharray:none;stroke-opacity:1"
       d="m 78.448323,407.07611 -34.44949,-23.49875 -6.40229,-12.42598 32.28516,12.63542 5.59047,-4.06584 C 65.519285,310.80254 -8.5517329,290.34573 3.8016531,244.80347 20.374713,183.70485 128.41986,104.45746 144.32552,60.014927 110.63591,199.13569 127.65546,335.39397 165.86022,335.60787 c 53.10003,-22.97926 124.2289,-8.35877 148.54429,0.18672 6.40978,23.22046 -170.06923,80.84726 -235.956187,71.28152 z"
       id="path1"
       sodipodi:nodetypes="cccccscccc" />
    <path
       style="fill:url(#radialGradient16-6);stroke:#ffffff;stroke-width:2;stroke-dasharray:none;stroke-opacity:1"
       d="m 206.95724,49.383979 32.98464,-25.514155 13.79539,-2.25422 -21.9837,26.808623 2.14173,6.572464 c 68.62531,11.805715 110.94629,-52.3342259 150.45174,-26.526798 52.99974,34.622754 95.02795,161.852977 132.3909,190.699777 -121.9289,-74.9861 -256.78716,-100.8556 -268.78305,-64.58234 5.46716,57.60007 -30.39433,120.74299 -46.02784,141.23341 -24.0651,-1.07051 -24.40538,-186.71958 5.03019,-246.436761 z"
       id="path1-2"
       sodipodi:nodetypes="cccccscccc" />
    <path
       style="fill:url(#radialGradient16-6-0);stroke:#ffffff;stroke-width:2;stroke-dasharray:none;stroke-opacity:1"
       d="m 484.66289,343.77445 -2.23347,41.64097 -7.30625,11.91692 -5.93372,-34.1581 -6.37512,-2.6725 C 409.04188,404.74348 429.95148,478.68796 384.60336,491.73603 323.7652,509.24106 199.98395,457.93706 153.73453,467.3774 290.16401,424.05799 397.85546,338.86096 378.23099,306.08093 331.05142,272.58845 306.67651,204.18568 301.37742,178.963 317.9102,161.44324 458.68332,282.47473 484.66289,343.77445 Z"
       id="path1-2-6"
       sodipodi:nodetypes="cccccscccc" />
  </g>
</svg>
