<?xml version="1.0" encoding="UTF-8" standalone="no"?>
<!-- Created with Inkscape (http://www.inkscape.org/) -->

<svg
   width="512"
   height="512"
   viewBox="0 0 512 512"
   version="1.1"
   id="svg1"
   inkscape:version="1.4 (e7c3feb1, 2024-10-09)"
   sodipodi:docname="murder-logo.svg"
   inkscape:export-filename="../../Desktop/murder-logo.png"
   inkscape:export-xdpi="96"
   inkscape:export-ydpi="96"
   xmlns:inkscape="http://www.inkscape.org/namespaces/inkscape"
   xmlns:sodipodi="http://sodipodi.sourceforge.net/DTD/sodipodi-0.dtd"
   xmlns:xlink="http://www.w3.org/1999/xlink"
   xmlns="http://www.w3.org/2000/svg"
   xmlns:svg="http://www.w3.org/2000/svg">
  <sodipodi:namedview
     id="namedview1"
     pagecolor="#505050"
     bordercolor="#ffffff"
     borderopacity="1"
     inkscape:showpageshadow="0"
     inkscape:pageopacity="0"
     inkscape:pagecheckerboard="1"
     inkscape:deskcolor="#505050"
     inkscape:document-units="px"
     inkscape:zoom="0.96626131"
     inkscape:cx="209.05318"
     inkscape:cy="223.02456"
     inkscape:window-width="1200"
     inkscape:window-height="1512"
     inkscape:window-x="1295"
     inkscape:window-y="61"
     inkscape:window-maximized="0"
     inkscape:current-layer="layer1" />
  <defs
     id="defs1">
    <linearGradient
       id="linearGradient24"
       inkscape:collect="always">
      <stop
         style="stop-color:#00003a;stop-opacity:1;"
         offset="0"
         id="stop23" />
      <stop
         style="stop-color:#3b0032;stop-opacity:1;"
         offset="1"
         id="stop24" />
    </linearGradient>
    <radialGradient
       inkscape:collect="always"
       xlink:href="#linearGradient24"
       id="radialGradient16"
       cx="196.4632"
       cy="225.85683"
       fx="196.4632"
       fy="225.85683"
       r="137.21014"
       gradientTransform="matrix(0.2086614,1.9313234,-1.1797263,0.12745837,396.40527,-151.81583)"
       gradientUnits="userSpaceOnUse" />
    <radialGradient
       inkscape:collect="always"
       xlink:href="#linearGradient24"
       id="radialGradient16-6"
       cx="196.4632"
       cy="225.85683"
       fx="196.4632"
       fy="225.85683"
       r="137.21014"
       gradientTransform="matrix(-1.7769058,-0.78495563,0.47948096,-1.0854021,551.85954,577.34084)"
       gradientUnits="userSpaceOnUse" />
    <radialGradient
       inkscape:collect="always"
       xlink:href="#linearGradient24"
       id="radialGradient16-6-2"
       cx="196.4632"
       cy="225.85683"
       fx="196.4632"
       fy="225.85683"
       r="137.21014"
       gradientTransform="matrix(1.5682444,-1.1463677,0.70024531,0.95794374,-157.60834,347.5831)"
       gradientUnits="userSpaceOnUse" />
  </defs>
  <g
     inkscape:groupmode="layer"
     id="layer2"
     inkscape:label="Layer 2" />
  <g
     inkscape:label="Layer 1"
     inkscape:groupmode="layer"
     id="layer1">
    <path
       style="fill:url(#radialGradient16);stroke:#ffffff;stroke-width:2;stroke-dasharray:none;stroke-opacity:1"
       d="m 84.480685,409.74679 -35.243222,-22.29067 -6.829109,-12.19662 32.703687,11.50887 5.446196,-4.25715 C 68.222726,313.97916 -6.5127918,296.10182 4.2547502,250.15877 18.700272,188.52246 123.93392,105.57801 138.28972,60.610912 109.44205,200.81572 131.17387,336.40227 169.36309,335.29193 c 52.2717,-24.80582 123.86456,-12.65933 148.46152,-4.96171 7.21071,22.98436 -167.16502,86.69302 -233.343925,79.41657 z"
       id="path1"
       sodipodi:nodetypes="cccccscccc" />
    <path
       style="fill:url(#radialGradient16-6);stroke:#ffffff;stroke-width:2;stroke-dasharray:none;stroke-opacity:1"
       d="m 221.49433,26.424918 36.9259,-19.3761899 13.97714,0.18413 -26.31882,22.5677899 0.9637,6.84512 c 65.51827,23.58316 118.36826,-32.2010301 152.77233,0.0955 46.15585,43.32835 65.37103,175.935582 97.13578,210.851612 -106.99709,-95.08526 -235.2844,-144.05822 -253.41743,-110.43022 -4.65338,57.67153 -50.96898,113.59952 -69.93379,131.0523 -23.5104,-5.24752 8.50415,-188.115652 47.89519,-241.790042 z"
       id="path1-4"
       sodipodi:nodetypes="cccccscccc" />
    <path
       style="fill:url(#radialGradient16-6-2);stroke:#ffffff;stroke-width:2;stroke-dasharray:none;stroke-opacity:1"
       d="m 484.68146,336.9364 -1.68269,41.66686 -7.14802,12.01249 -6.38487,-34.07666 -6.4099,-2.58797 C 409.87323,398.90003 431.75876,472.56156 386.58711,486.20808 325.98573,504.51605 201.5369,454.85326 155.41636,464.90433 291.26115,419.78476 397.81663,333.17117 377.76045,300.65351 330.14213,267.7878 304.86487,199.71331 299.23272,174.56292 315.53241,156.82608 457.89358,275.98555 484.68145,336.93639 Z"
       id="path1-4-6"
       sodipodi:nodetypes="cccccscccc" />
  </g>
</svg>
